HIERARCHY
ROOT Hips
{
	OFFSET 0.000000 0.000000 0.000000 
	CHANNELS 6 Xposition Yposition Zposition Zrotation Yrotation Xrotation
	JOINT LeftUpLeg
	{
		OFFSET 1.363060 -1.794630 0.839290 
		CHANNELS 3 Zrotation Yrotation Xrotation
		JOINT LeftLeg
		{
			OFFSET 2.448110 -6.726130 0.000000 
			CHANNELS 3 Zrotation Yrotation Xrotation
			JOINT LeftFoot
			{
				OFFSET 2.562200 -7.039590 0.000000 
				CHANNELS 3 Zrotation Yrotation Xrotation
				JOINT LeftToeBase
				{
					OFFSET 0.157640 -0.433110 2.322550 
					CHANNELS 3 Zrotation Yrotation Xrotation
					End Site
					{
						OFFSET 0.000000 0.000000 0.000000 
					}
				}
			}
		}
	}
	JOINT RightUpLeg
	{
		OFFSET -1.305520 -1.794630 0.839290 
		CHANNELS 3 Zrotation Yrotation Xrotation
		JOINT RightLeg
		{
			OFFSET -2.542530 -6.985550 0.000000 
			CHANNELS 3 Zrotation Yrotation Xrotation
			JOINT RightFoot
			{
				OFFSET -2.568260 -7.056230 0.000000 
				CHANNELS 3 Zrotation Yrotation Xrotation
				JOINT RightToeBase
				{
					OFFSET -0.164730 -0.452590 2.363150 
					CHANNELS 3 Zrotation Yrotation Xrotation
					End Site
					{
						OFFSET 0.000000 0.000000 0.000000 
					}
				}
			}
		}
	}
	JOINT Spine
	{
		OFFSET 0.028270 2.035590 -0.193380 
		CHANNELS 3 Zrotation Yrotation Xrotation
		JOINT Spine1
		{
			OFFSET 0.056720 2.048850 -0.042750 
			CHANNELS 3 Zrotation Yrotation Xrotation
			JOINT Neck1
			{
				OFFSET -0.054170 1.746240 0.172020 
				CHANNELS 3 Zrotation Yrotation Xrotation
				JOINT Head
				{
					OFFSET 0.104070 1.761360 -0.123970 
					CHANNELS 3 Zrotation Yrotation Xrotation
					End Site
					{
						OFFSET 0.000000 0.000000 0.000000 
					}
				}
			}
			JOINT LeftArm
			{
				OFFSET 3.362410 1.200890 -0.311210 
				CHANNELS 3 Zrotation Yrotation Xrotation
				JOINT LeftForeArm
				{
					OFFSET 4.983000 -0.000000 -0.000000 
					CHANNELS 3 Zrotation Yrotation Xrotation
					JOINT LeftHand
					{
						OFFSET 3.483560 -0.000000 -0.000000 
						CHANNELS 3 Zrotation Yrotation Xrotation
						JOINT LeftHandIndex1
						{
							OFFSET 0.715260 -0.000000 -0.000000 
							CHANNELS 3 Zrotation Yrotation Xrotation
							End Site
							{
								OFFSET 0.000000 0.000000 0.000000 
							}
						}
					}
				}
			}
			JOINT RightArm
			{
				OFFSET -3.136600 1.374050 -0.404650 
				CHANNELS 3 Zrotation Yrotation Xrotation
				JOINT RightForeArm
				{
					OFFSET -5.241900 -0.000000 -0.000000 
					CHANNELS 3 Zrotation Yrotation Xrotation
					JOINT RightHand
					{
						OFFSET -3.444170 -0.000000 -0.000000 
						CHANNELS 3 Zrotation Yrotation Xrotation
						JOINT RightHandIndex1
						{
							OFFSET -0.622530 -0.000000 -0.000000 
							CHANNELS 3 Zrotation Yrotation Xrotation
							End Site
							{
								OFFSET 0.000000 0.000000 0.000000 
							}
						}
					}
				}
			}
		}
	}
}
MOTION
Frames: 18
Frame Time: 0.041667
10.192625 17.994801 24.376432 -177.314733 -0.903863 -179.152937 -17.387701 -24.571228 0.218565 -2.774183 6.803127 20.283114 -3.448319 12.902928 -9.251837 0.473400 -4.412600 -12.240500 31.470091 17.406203 8.985880 4.030681 -2.036916 10.437707 6.411632 -27.112112 -14.978548 -0.048400 -1.420300 3.906100 2.518172 3.067425 7.397711 -6.034921 1.234159 -13.687512 19.144297 -7.406094 9.748565 3.977100 -3.271000 3.773200 -77.479221 15.581866 -13.619924 26.167102 -26.383578 -5.977892 1.813232 0.444438 8.709175 -7.125000 0.000000 0.000000 81.092124 -16.472995 -3.544741 -22.811750 25.070134 -5.920279 0.470310 -1.080367 29.327962 7.125000 0.000000 0.000000 
10.189848 17.995842 24.376316 -177.459187 -0.760937 -179.097345 -17.547627 -24.638687 0.336644 -2.815058 6.741213 20.108465 -3.527225 13.144436 -9.404039 0.493000 -4.502000 -12.493400 31.308302 17.635655 8.803744 3.993198 -2.184374 10.805938 6.332840 -26.901496 -15.363676 -0.060900 -1.592000 4.379300 2.413436 3.011918 7.389094 -5.969882 1.216032 -13.683851 19.245933 -7.416544 9.894936 4.014100 -3.261600 3.829300 -77.762944 16.171837 -13.273319 26.392801 -26.580489 -6.091245 1.808693 0.466854 8.167096 -7.125000 0.000000 0.000000 81.076078 -16.777138 -3.157566 -22.696690 24.913169 -5.894204 0.461766 -1.076396 29.069950 7.125000 0.000000 0.000000 
10.185913 17.997347 24.378978 -177.585321 -0.604930 -179.005967 -17.690013 -24.656888 0.342250 -2.834022 6.723949 20.049642 -3.571120 13.293002 -9.544722 0.477600 -4.432100 -12.295600 31.122292 17.867920 8.659248 3.974421 -2.262582 10.986829 6.287790 -26.764819 -15.548016 -0.082500 -1.852900 5.099200 2.385877 2.981548 7.258788 -5.915353 1.207843 -13.696703 19.261303 -7.366094 9.958175 4.028000 -3.233200 3.839400 -78.012633 16.612038 -13.077231 26.371472 -26.513726 -6.087845 1.809263 0.484442 8.073954 -7.125000 0.000000 0.000000 81.109875 -17.139628 -2.834990 -22.625713 24.801467 -5.869690 0.456328 -1.081298 29.196785 7.125000 0.000000 0.000000 
10.184062 17.996768 24.382565 -177.586775 -0.483132 -178.988785 -17.714646 -24.661239 0.370875 -2.846042 6.705377 20.002522 -3.589754 13.353929 -9.627153 0.446100 -4.285400 -11.881100 31.113166 18.018780 8.601580 3.961513 -2.319200 11.110834 6.302361 -26.812910 -15.588101 -0.088600 -1.919300 5.282700 2.503057 2.943417 7.180809 -5.908279 1.188422 -13.748887 19.241687 -7.302438 9.997417 4.028300 -3.200300 3.839000 -78.314859 17.067770 -12.878754 26.325196 -26.439203 -6.100752 1.820690 0.499217 8.040632 -7.125000 0.000000 0.000000 81.213410 -17.595830 -2.467156 -22.620457 24.762287 -5.863285 0.448929 -1.090666 29.545566 7.125000 0.000000 0.000000 
10.183252 17.998504 24.388352 -177.523468 -0.450646 -178.934388 -17.624636 -24.747038 0.347889 -2.854050 6.697319 19.976577 -3.580243 13.336441 -9.759836 0.429700 -4.206700 -11.658900 31.161198 18.090887 8.506347 3.957072 -2.352454 11.167701 6.317055 -26.869640 -15.602000 -0.086700 -1.899200 5.227300 2.564943 2.916853 7.055041 -5.929983 1.162906 -13.809186 19.009214 -7.285785 10.048938 3.935200 -3.189100 3.839100 -78.552427 17.362597 -12.788994 26.209142 -26.323534 -6.104866 1.844460 0.501375 8.096741 -7.125000 0.000000 0.000000 81.459350 -18.082969 -2.185853 -22.616742 24.736642 -5.871156 0.448480 -1.092313 29.859505 7.125000 0.000000 0.000000 
10.180706 18.003249 24.393791 -177.509374 -0.412041 -178.821756 -17.586174 -24.811074 0.265517 -2.858648 6.699593 19.967836 -3.596097 13.385955 -9.826147 0.435100 -4.232600 -11.732100 31.120724 18.185021 8.394717 3.958532 -2.362394 11.157589 6.337779 -26.919025 -15.530390 -0.078100 -1.802700 4.960800 2.705225 2.885012 6.851603 -5.919855 1.141144 -13.851263 18.678223 -7.231194 10.092877 3.822600 -3.163900 3.829700 -78.925741 17.619007 -12.742483 26.102096 -26.204545 -6.088676 1.857961 0.501544 8.230218 -7.125000 0.000000 0.000000 81.630116 -18.472059 -1.824699 -22.525761 24.617933 -5.862343 0.456195 -1.088697 30.122646 7.125000 0.000000 0.000000 
10.179433 18.004869 24.396105 -177.492665 -0.337590 -178.790731 -17.581521 -24.716414 0.197655 -2.856628 6.704811 19.976273 -3.646247 13.514727 -9.754363 0.511500 -4.584400 -12.726800 31.133476 18.259785 8.416716 3.962131 -2.352186 11.121519 6.347830 -26.940072 -15.463155 -0.068500 -1.688600 4.645900 2.922552 2.817608 6.749938 -5.902950 1.109612 -13.908927 18.568485 -7.119963 10.179410 3.800100 -3.104700 3.844300 -79.425649 17.860077 -12.787548 25.972617 -26.047954 -6.038523 1.860805 0.505066 8.710217 -7.125000 0.000000 0.000000 81.740276 -18.810233 -1.141771 -22.375252 24.417652 -5.818942 0.459641 -1.090705 30.310805 7.125000 0.000000 0.000000 
10.179433 18.002786 24.399693 -177.443614 -0.277307 -178.798196 -17.545432 -24.699035 0.200431 -2.858255 6.701881 19.966994 -3.699262 13.652354 -9.722219 0.578200 -4.869300 -13.536000 31.186781 18.317352 8.429434 3.962588 -2.353700 11.116334 6.353763 -26.956853 -15.413704 -0.065500 -1.651800 4.544400 3.015889 2.778526 6.705052 -5.922573 1.083973 -13.986899 18.477018 -7.038007 10.181003 3.764700 -3.063500 3.832900 -79.869098 18.026712 -12.818067 25.807814 -25.868933 -5.989285 1.865985 0.511922 9.325729 -7.125000 0.000000 0.000000 82.000478 -19.232446 -0.426093 -22.256081 24.244815 -5.769124 0.462144 -1.098459 30.517179 7.125000 0.000000 0.000000 
10.177465 18.002439 24.403396 -177.392835 -0.246062 -178.776920 -17.507772 -24.781232 0.233877 -2.862696 6.691999 19.945328 -3.691524 13.632013 -9.773509 0.539100 -4.704500 -13.067500 31.211938 18.376215 8.385524 3.959477 -2.376497 11.164073 6.332008 -26.910927 -15.509491 -0.075200 -1.769300 4.868400 3.173352 2.740126 6.641590 -5.931755 1.060097 -14.028322 18.185955 -6.938332 10.057348 3.662000 -3.029800 3.763000 -80.389486 18.227471 -12.871485 25.675112 -25.740085 -5.977596 1.881245 0.511358 9.769153 -7.125000 0.000000 0.000000 82.288813 -19.680607 0.218067 -22.145944 24.085793 -5.730246 0.463607 -1.104502 30.786595 7.125000 0.000000 0.000000 
10.173530 18.001976 24.402586 -177.396399 -0.145629 -178.767419 -17.540464 -24.764059 0.259828 -2.867344 6.684603 19.935633 -3.670758 13.588154 -9.870427 0.488200 -4.480000 -12.431100 31.195348 18.486300 8.386541 3.953318 -2.403070 11.225715 6.338625 -26.934028 -15.551734 -0.072600 -1.738400 4.783100 3.317592 2.718167 6.633983 -5.916464 1.052821 -14.019766 17.937283 -6.822564 9.979318 3.582100 -2.985300 3.710100 -80.972326 18.405259 -12.934657 25.520879 -25.577180 -5.943644 1.896163 0.507082 10.084974 -7.125000 0.000000 0.000000 82.596830 -20.068302 0.856293 -21.982171 23.876050 -5.695156 0.468467 -1.101829 31.005006 7.125000 0.000000 0.000000 
10.168323 17.999546 24.397957 -177.445229 0.028920 -178.777784 -17.653247 -24.779425 0.346571 -2.877956 6.676390 19.921622 -3.701078 13.702670 -10.056305 0.476600 -4.427500 -12.282500 31.090103 18.408447 8.308961 3.934750 -2.433309 11.291236 6.342366 -26.868922 -15.212139 -0.054600 -1.507700 4.146800 3.327868 2.731178 6.699191 -5.913662 1.063680 -13.983773 17.902996 -6.722722 9.948576 3.569500 -2.937600 3.694600 -81.559371 18.546346 -12.863672 25.371621 -25.366959 -5.843328 1.891449 0.503929 10.336393 -7.125000 0.000000 0.000000 82.998340 -20.430531 1.482833 -21.775573 23.617862 -5.643853 0.484282 -1.097209 30.966238 7.125000 0.000000 0.000000 
10.165777 17.999199 24.395295 -177.475262 0.155016 -178.785811 -17.728452 -24.801859 0.410088 -2.887375 6.666820 19.901062 -3.760777 13.884835 -10.167659 0.530500 -4.667400 -12.962200 30.997085 18.315402 8.220787 3.919454 -2.456559 11.344168 6.305349 -26.699407 -14.976847 -0.052700 -1.480900 4.073100 3.425221 2.698467 6.795095 -5.891573 1.057982 -13.951430 17.962853 -6.571705 9.893691 3.593700 -2.863400 3.679400 -82.206468 18.674940 -12.763072 25.207765 -25.105365 -5.689211 1.869334 0.499704 10.675244 -7.125000 0.000000 0.000000 83.411162 -20.792180 2.234365 -21.568198 23.346126 -5.568997 0.494976 -1.097561 30.604002 7.125000 0.000000 0.000000 
10.166124 17.999893 24.396337 -177.480037 0.229702 -178.750843 -17.733731 -24.746761 0.365769 -2.896543 6.655423 19.853617 -3.915500 14.295341 -10.059124 0.700600 -5.350000 -14.909700 30.981170 18.465555 8.187847 3.916846 -2.477338 11.385554 6.296909 -26.682153 -15.053155 -0.055100 -1.515300 4.168000 3.543363 2.655685 6.838553 -5.864263 1.045242 -13.942179 17.920599 -6.435372 9.867071 3.582900 -2.796000 3.669100 -82.877235 18.815763 -12.660522 25.049114 -24.887691 -5.593652 1.859201 0.501218 10.971850 -7.125000 0.000000 0.000000 83.917009 -21.153297 2.874924 -21.439986 23.174774 -5.521540 0.489909 -1.097357 30.587397 7.125000 0.000000 0.000000 
10.165314 18.000703 24.397378 -177.434607 0.312277 -178.687415 -17.690625 -24.755286 0.360742 -2.912502 6.630378 19.774137 -4.029926 14.601335 -10.037124 0.795700 -5.693600 -15.897900 31.038757 18.648432 8.114261 3.910667 -2.521001 11.463035 6.339226 -26.821615 -15.055532 -0.037200 -1.245500 3.424500 3.599311 2.668676 6.831132 -5.901023 1.044088 -13.938400 17.899805 -6.372886 9.893480 3.568700 -2.758800 3.682400 -83.512744 18.949386 -12.491761 24.946406 -24.764513 -5.563281 1.863104 0.497751 11.195227 -7.125000 0.000000 0.000000 84.567718 -21.538146 3.292012 -21.401796 23.122964 -5.514526 0.485334 -1.092053 30.788177 7.125000 0.000000 0.000000 
10.162536 18.002092 24.399114 -177.432289 0.466876 -178.657152 -17.703494 -24.766227 0.416821 -2.932645 6.600066 19.694134 -4.063700 14.709432 -10.173149 0.785700 -5.658700 -15.797300 31.037620 18.741908 8.020976 3.894307 -2.576364 11.575697 6.368480 -26.886577 -14.910823 -0.022500 -0.968600 2.662300 3.561902 2.710546 6.852577 -5.937915 1.055320 -13.958382 17.776666 -6.329967 9.941708 3.510200 -2.730300 3.698400 -84.148250 19.041665 -12.132783 24.846168 -24.621121 -5.510739 1.853066 0.500616 11.273942 -7.125000 0.000000 0.000000 85.226859 -21.874863 3.732877 -21.320526 23.030974 -5.499170 0.500452 -1.084946 30.918803 7.125000 0.000000 0.000000 
10.157792 18.002555 24.403859 -177.526167 0.634686 -178.654702 -17.815374 -24.738590 0.462391 -2.950507 6.574599 19.619979 -4.111744 14.857886 -10.227129 0.762600 -5.576700 -15.561200 30.933250 18.920709 7.994811 3.883261 -2.615505 11.669029 6.376339 -26.898459 -14.954341 -0.025600 -1.031900 2.836600 3.461835 2.725660 6.894803 -5.929455 1.064378 -14.003041 17.559584 -6.240482 9.851423 3.424900 -2.694800 3.653500 -84.888271 19.086192 -11.991082 24.682733 -24.431595 -5.445648 1.850489 0.501604 11.403386 -7.125000 0.000000 0.000000 85.810050 -22.086515 4.135400 -21.170927 22.872732 -5.471368 0.527038 -1.079264 31.368831 7.125000 0.000000 0.000000 
10.152352 18.003712 24.407562 -177.561567 0.744173 -178.665962 -17.875286 -24.766213 0.540877 -2.962827 6.543844 19.554548 -4.035201 14.656757 -10.299447 0.575500 -4.858000 -13.504100 30.875550 19.080000 7.970253 3.875449 -2.654698 11.769587 6.345817 -26.829731 -15.177269 -0.036900 -1.240600 3.411200 3.556499 2.705966 6.992780 -5.950970 1.092061 -14.030933 17.513613 -6.085723 9.655591 3.418900 -2.634900 3.581400 -85.733002 19.017233 -12.258212 24.383032 -24.150377 -5.368557 1.876655 0.486387 12.066094 -7.125000 0.000000 0.000000 86.345446 -22.234206 4.675677 -21.077402 22.778054 -5.460187 0.538095 -1.066681 31.308726 7.125000 0.000000 0.000000 
10.148186 18.006605 24.411497 -177.562276 0.872143 -178.642223 -17.862877 -24.780496 0.546023 -2.975022 6.520499 19.499186 -3.966645 14.480002 -10.420837 0.444900 -4.279500 -11.864500 30.843109 19.143284 7.869090 3.861421 -2.699504 11.871207 6.315944 -26.727756 -15.160439 -0.032900 -1.170300 3.217500 3.522868 2.697129 7.104244 -6.002175 1.081737 -14.043697 17.531815 -5.970256 9.587905 3.420600 -2.578800 3.564700 -86.435494 18.915142 -12.150387 24.060538 -23.811513 -5.268493 1.893668 0.478470 12.725724 -7.125000 0.000000 0.000000 87.020413 -22.427239 5.501718 -21.059752 22.767503 -5.463829 0.541544 -1.040042 30.223726 7.125000 0.000000 0.000000 
